<?xml version="1.0" standalone="no"?>
<!DOCTYPE svg PUBLIC "-//W3C//DTD SVG 20010904//EN"
 "http://www.w3.org/TR/2001/REC-SVG-20010904/DTD/svg10.dtd">
<svg version="1.0" xmlns="http://www.w3.org/2000/svg"
 width="194.000000pt" height="260.000000pt" viewBox="0 0 194.000000 260.000000"
 preserveAspectRatio="xMidYMid meet">

<g transform="translate(0.000000,260.000000) scale(0.100000,-0.100000)"
fill="#000000" stroke="none">
<path d="M0 1300 l0 -970 358 0 357 0 38 -39 c127 -132 437 -199 717 -156 165
25 307 85 379 159 24 25 44 36 63 36 l28 0 0 970 0 970 -970 0 -970 0 0 -970z
m1283 951 l637 -1 0 -168 0 -168 -71 -27 c-169 -66 -359 -92 -608 -84 -238 8
-403 43 -554 119 -65 32 -141 98 -163 139 -19 38 -18 98 5 139 21 41 47 57 87
54 16 -1 316 -3 667 -3z m-99 -649 c0 -200 -9 -251 -42 -236 -30 13 -288 17
-308 5 -16 -10 -14 -10 11 -6 27 6 27 4 -10 -15 -22 -11 -47 -28 -55 -37 -13
-14 -11 -14 13 1 16 10 31 15 34 12 3 -3 14 -1 23 4 16 8 18 5 17 -25 -1 -45
11 -56 67 -62 45 -5 48 -4 97 46 28 29 54 50 57 47 3 -3 -7 -25 -22 -48 -20
-32 -22 -37 -5 -18 12 14 26 24 31 22 5 -1 7 2 3 8 -3 5 -4 10 -1 10 2 0 11 3
20 6 10 4 4 -14 -20 -52 -19 -33 -42 -84 -50 -114 -39 -141 -115 -275 -181
-320 -20 -14 -54 -39 -74 -56 -63 -52 -336 -186 -399 -195 l-55 -8 57 3 57 3
16 -45 c15 -47 19 -119 9 -159 -6 -23 -6 -23 -230 -23 -179 0 -224 3 -224 13
0 8 21 46 46 85 29 45 48 88 51 115 7 50 34 92 72 112 28 14 29 13 75 -41 26
-29 52 -54 59 -54 6 0 2 7 -10 15 -34 24 -185 229 -234 319 -27 49 -40 58 -18
13 10 -21 9 -21 -5 -3 -10 12 -13 29 -9 45 17 69 136 193 278 288 93 62 329
203 340 203 3 0 -8 -20 -25 -45 -53 -77 -73 -134 -74 -207 -1 -44 4 -71 13
-80 11 -11 12 -9 5 12 -16 47 -5 113 31 186 45 93 127 170 270 255 70 41 132
88 179 135 47 47 79 72 96 73 l25 1 -1 -188z m-1135 -709 c10 -21 44 -73 75
-116 l57 -78 -38 -46 -37 -45 -43 88 c-39 79 -43 95 -43 161 0 40 2 73 5 73 2
0 13 -17 24 -37z m1391 -133 c41 -6 82 -13 92 -16 12 -3 18 0 18 10 0 22 16
20 33 -4 7 -11 33 -26 56 -35 119 -42 229 -123 257 -190 18 -44 18 -106 0
-148 -34 -80 -162 -165 -311 -207 -328 -93 -762 0 -872 188 -96 163 81 342
387 392 41 6 82 13 90 15 35 7 181 4 250 -5z m-1341 -168 c12 -42 1 -80 -40
-137 -18 -25 -34 -45 -36 -45 -2 0 -3 75 -3 168 l1 167 34 -60 c19 -33 39 -75
44 -93z m691 112 l22 -35 -55 -52 c-37 -35 -59 -67 -69 -97 -35 -106 -37 -110
-26 -104 7 5 9 -3 4 -22 -4 -19 -3 -24 3 -15 7 11 11 9 20 -8 11 -20 10 -21
-19 -19 -28 2 -30 5 -25 28 4 19 3 21 -5 10 -7 -10 -10 29 -10 132 l0 147 63
34 c34 19 65 35 69 36 3 0 16 -15 28 -35z m-170 -199 c0 -131 -2 -155 -15
-155 -13 0 -15 23 -15 149 0 142 2 152 28 160 1 1 2 -69 2 -154z m-40 -11 l0
-145 -47 3 -46 3 2 71 c1 48 -3 84 -15 114 -10 25 -14 45 -8 47 5 2 30 14 54
28 25 13 48 24 53 25 4 0 7 -65 7 -146z"/>
<path d="M1310 2125 c0 -17 -5 -25 -17 -25 -12 0 -14 3 -7 8 9 5 8 11 -2 20
-8 7 -14 8 -14 2 0 -5 -7 -10 -15 -10 -8 0 -15 5 -15 10 0 6 -4 10 -10 10 -5
0 -7 -7 -4 -15 4 -8 15 -15 25 -15 27 0 24 -18 -3 -23 -13 -3 -4 -3 19 -1 26
2 43 -1 46 -9 3 -7 6 7 6 31 1 23 -1 42 -4 42 -3 0 -5 -11 -5 -25z"/>
<path d="M1375 2137 c-25 -19 -10 -37 31 -37 27 0 34 4 34 19 0 17 -18 31 -39
31 -4 0 -15 -6 -26 -13z m53 -14 c2 -8 -6 -13 -22 -13 -28 0 -43 15 -24 23 20
8 41 3 46 -10z"/>
<path d="M1603 2080 c0 -41 2 -58 4 -37 2 20 2 54 0 75 -2 20 -4 3 -4 -38z"/>
<path d="M1720 2135 c0 -8 -7 -15 -15 -15 -8 0 -15 5 -15 11 0 6 -12 9 -27 7
-24 -3 -29 -8 -31 -37 l-3 -34 45 6 c41 6 45 4 49 -16 2 -12 5 4 6 36 0 31 -1
57 -4 57 -3 0 -5 -7 -5 -15z m-40 -31 c0 -19 -4 -25 -17 -22 -28 5 -25 48 3
48 8 0 14 -10 14 -26z m40 -4 c0 -5 -4 -10 -9 -10 -6 0 -13 5 -16 10 -3 6 1
10 9 10 9 0 16 -4 16 -10z"/>
<path d="M771 2103 c-1 -47 -20 -60 -22 -15 l-1 27 -7 -29 c-9 -44 -31 -45
-31 -2 0 30 4 35 28 39 23 3 22 4 -8 6 l-35 1 0 -46 0 -46 37 5 c32 4 37 2 41
-17 2 -12 5 -5 6 17 0 20 6 37 12 37 8 0 8 4 1 13 -5 6 -12 21 -15 32 -2 11
-5 1 -6 -22z"/>
<path d="M832 2131 c-21 -13 -12 -85 12 -89 10 -2 22 2 27 10 13 19 11 62 -3
76 -14 14 -19 15 -36 3z m36 -50 c-2 -15 -9 -26 -18 -26 -16 0 -25 37 -16 62
10 25 38 -5 34 -36z"/>
<path d="M913 2075 c0 -38 2 -53 4 -32 2 20 2 52 0 70 -2 17 -4 1 -4 -38z"/>
<path d="M951 2127 c-18 -23 -10 -81 12 -85 12 -3 20 4 24 17 8 33 21 25 26
-16 2 -21 4 -6 4 32 0 39 -2 60 -4 48 -5 -28 -10 -29 -32 -2 -15 19 -18 19
-30 6z m29 -43 c0 -24 -4 -34 -12 -32 -15 5 -22 42 -14 64 10 25 26 5 26 -32z"/>
<path d="M1033 2075 c0 -38 2 -53 4 -32 2 20 2 52 0 70 -2 17 -4 1 -4 -38z"/>
<path d="M1172 2100 c-1 -32 2 -39 7 -25 8 19 9 18 13 -5 3 -14 5 -2 5 25 0
28 -2 39 -5 25 l-5 -25 -8 25 c-5 20 -7 16 -7 -20z"/>
<path d="M1519 2121 c12 -8 12 -12 2 -24 -10 -13 -9 -15 7 -10 16 4 19 0 17
-21 -3 -22 1 -26 23 -25 27 0 27 0 4 10 -27 11 -24 36 4 31 15 -3 16 -1 7 8
-6 7 -9 19 -6 26 3 9 -2 14 -13 14 -13 0 -15 -3 -7 -8 8 -5 9 -12 2 -22 -7
-12 -10 -11 -15 8 -4 12 -14 22 -23 22 -13 0 -14 -2 -2 -9z"/>
<path d="M1104 2096 c-8 -21 3 -36 27 -36 15 0 20 6 17 22 -4 27 -35 37 -44
14z m36 -11 c0 -8 -7 -15 -15 -15 -16 0 -20 12 -8 23 11 12 23 8 23 -8z"/>
<path d="M1368 2083 c17 -2 47 -2 65 0 17 2 3 4 -33 4 -36 0 -50 -2 -32 -4z"/>
<path d="M1242 2035 c2 -22 6 -25 43 -24 l40 2 -35 7 -35 7 35 5 35 5 -40 2
c-32 2 -36 4 -20 11 19 8 19 9 -2 9 -18 1 -22 -4 -21 -24z"/>
<path d="M1395 2050 l40 -7 -37 -2 c-27 -1 -38 -6 -38 -16 0 -8 5 -15 11 -15
5 0 7 5 4 10 -4 6 8 10 29 10 25 0 36 4 36 15 0 11 -11 15 -42 14 l-43 -2 40
-7z"/>
<path d="M1150 2042 c0 -5 -10 -14 -22 -20 -18 -8 -19 -11 -6 -11 9 -1 20 4
23 9 4 7 13 6 26 -1 30 -15 31 -7 3 14 -13 10 -24 14 -24 9z"/>
<path d="M1515 2040 c3 -5 8 -10 11 -10 2 0 4 5 4 10 0 6 -5 10 -11 10 -5 0
-7 -4 -4 -10z"/>
<path d="M1651 2033 c-1 -21 3 -23 42 -21 l42 1 -37 4 c-24 3 -38 10 -41 21
-3 12 -5 11 -6 -5z"/>
<path d="M1760 2030 c0 -5 5 -10 11 -10 5 0 7 5 4 10 -3 6 -8 10 -11 10 -2 0
-4 -4 -4 -10z"/>
<path d="M1800 2030 c0 -5 5 -10 11 -10 5 0 7 5 4 10 -3 6 -8 10 -11 10 -2 0
-4 -4 -4 -10z"/>
<path d="M966 1469 c-85 -29 -121 -37 -126 -29 -5 8 -10 6 -14 -7 -4 -10 -7
-20 -7 -23 -1 -3 -5 -10 -10 -16 -5 -7 46 6 113 29 91 29 141 40 189 41 55 1
65 4 61 16 -15 41 -58 39 -206 -11z"/>
<path d="M841 1474 c0 -11 3 -14 6 -6 3 7 2 16 -1 19 -3 4 -6 -2 -5 -13z"/>
<path d="M731 1318 c-7 -24 -11 -66 -8 -93 l3 -50 2 56 c1 31 7 70 13 88 6 18
9 34 7 37 -3 2 -11 -15 -17 -38z"/>
<path d="M785 1350 c-3 -6 1 -7 9 -4 18 7 21 14 7 14 -6 0 -13 -4 -16 -10z"/>
<path d="M784 1238 c-4 -7 -3 -8 4 -4 7 4 12 3 12 -2 0 -15 81 -44 125 -44 50
-1 90 11 78 23 -6 6 -22 5 -42 -2 -42 -15 -107 -6 -142 20 -20 15 -30 17 -35
9z"/>
<path d="M736 1150 c3 -14 11 -32 16 -40 6 -10 7 -7 2 10 -3 14 -11 32 -16 40
-6 10 -7 7 -2 -10z"/>
<path d="M716 1034 c-44 -51 -42 -73 2 -26 23 24 49 74 39 72 -1 -1 -19 -21
-41 -46z"/>
<path d="M241 1004 c0 -11 3 -14 6 -6 3 7 2 16 -1 19 -3 4 -6 -2 -5 -13z"/>
<path d="M282 947 c6 -21 13 -35 16 -33 2 3 22 -9 45 -25 72 -52 192 -74 275
-49 l34 9 -47 -42 c-80 -70 -125 -97 -165 -97 -47 0 -61 16 -106 116 -20 44
-33 66 -29 50 12 -55 63 -154 88 -171 42 -27 102 -5 194 72 43 36 77 70 75 75
-1 5 2 7 8 3 6 -3 23 4 38 16 l27 22 -25 -8 c-14 -4 -65 -11 -115 -15 -89 -7
-89 -7 -25 -9 55 -2 61 -4 40 -12 -39 -16 -149 -5 -208 20 -62 28 -64 38 -2
16 23 -8 50 -15 59 -15 9 0 -15 11 -52 24 -41 14 -81 36 -102 56 l-34 33 11
-36z m63 -45 c-3 -3 -11 0 -18 7 -9 10 -8 11 6 5 10 -3 15 -9 12 -12z"/>
<path d="M374 676 c11 -9 34 -15 50 -15 31 1 31 1 -4 8 -20 4 -42 11 -50 15
-8 4 -6 0 4 -8z"/>
<path d="M415 550 c-3 -6 1 -7 9 -4 18 7 21 14 7 14 -6 0 -13 -4 -16 -10z"/>
<path d="M321 485 c-30 -19 -77 -42 -105 -51 -28 -9 -58 -23 -66 -32 -13 -14
-13 -15 0 -5 8 6 38 18 66 27 45 15 164 81 164 92 0 6 -2 5 -59 -31z"/>
<path d="M1060 470 c0 -118 2 -140 15 -140 12 0 15 16 15 80 0 73 2 80 20 80
11 0 20 5 20 10 0 6 -9 10 -20 10 -17 0 -20 7 -20 50 0 38 -4 50 -15 50 -13 0
-15 -22 -15 -140z"/>
<path d="M1330 470 c0 -87 4 -140 10 -140 6 0 10 53 10 140 0 87 -4 140 -10
140 -6 0 -10 -53 -10 -140z"/>
<path d="M1589 605 c-1 -3 -3 -9 -4 -15 -1 -5 -3 -17 -4 -25 0 -8 -8 -15 -16
-15 -21 0 -19 -17 3 -22 15 -4 18 -15 17 -62 -1 -40 3 -56 12 -56 10 0 13 25
13 100 0 60 -4 100 -10 100 -5 0 -11 -2 -11 -5z"/>
<path d="M1175 575 c-20 -19 -25 -34 -25 -77 0 -65 20 -98 59 -98 50 0 79 57
67 126 -8 38 -37 74 -61 74 -9 0 -27 -11 -40 -25z m65 -20 c16 -19 16 -100 0
-120 -19 -23 -49 -18 -60 11 -29 76 17 161 60 109z"/>
<path d="M1440 581 c0 -10 -11 -39 -24 -64 -28 -53 -23 -70 9 -27 16 22 24 27
33 18 6 -6 15 -9 19 -5 4 4 1 13 -5 19 -7 7 -12 27 -12 45 0 18 -4 33 -10 33
-5 0 -10 -8 -10 -19z"/>
<path d="M1506 555 c-4 -25 -18 -58 -32 -74 -13 -16 -21 -32 -16 -35 10 -6 32
16 49 47 9 17 11 17 27 -8 9 -14 21 -23 27 -20 5 4 1 17 -11 32 -12 16 -20 41
-20 64 0 53 -16 49 -24 -6z"/>
<path d="M890 580 c0 -6 30 -10 70 -10 40 0 70 4 70 10 0 6 -30 10 -70 10 -40
0 -70 -4 -70 -10z"/>
<path d="M915 490 c7 -56 6 -60 -14 -60 -12 0 -21 -5 -21 -10 0 -15 162 -8
167 7 3 7 -3 9 -16 6 -20 -5 -21 -1 -21 56 0 34 -4 61 -10 61 -6 0 -10 -27
-10 -60 0 -57 -1 -60 -25 -60 -24 0 -25 3 -25 60 0 48 -3 60 -16 60 -14 0 -15
-9 -9 -60z"/>
<path d="M1450 380 l0 -40 80 0 c47 0 80 4 80 10 0 6 -30 10 -70 10 l-70 0 0
30 c0 17 -4 30 -10 30 -5 0 -10 -18 -10 -40z"/>
<path d="M1657 394 c-14 -15 -6 -34 14 -34 14 0 19 5 17 17 -3 18 -20 27 -31
17z"/>
</g>
</svg>
